<svg width="20" height="21" viewBox="0 0 20 21" fill="none" xmlns="http://www.w3.org/2000/svg">
<path d="M16.3333 8.83334C16.3333 13.8333 9.66667 18.8333 9.66667 18.8333C9.66667 18.8333 3 13.8333 3 8.83334C3 7.06523 3.70238 5.36954 4.95262 4.11929C6.20286 2.86905 7.89856 2.16667 9.66667 2.16667C11.4348 2.16667 13.1305 2.86905 14.3807 4.11929C15.631 5.36954 16.3333 7.06523 16.3333 8.83334Z" stroke="#3899F3" stroke-width="2" stroke-linecap="round" stroke-linejoin="round"/>
<path d="M9.66667 11.3333C11.0474 11.3333 12.1667 10.2141 12.1667 8.83334C12.1667 7.45263 11.0474 6.33334 9.66667 6.33334C8.28595 6.33334 7.16667 7.45263 7.16667 8.83334C7.16667 10.2141 8.28595 11.3333 9.66667 11.3333Z" stroke="#3899F3" stroke-width="2" stroke-linecap="round" stroke-linejoin="round"/>
</svg>
